<svg id="Ebene_1" data-name="Ebene 1" xmlns="http://www.w3.org/2000/svg" viewBox="0 0 5246.93 3404.41"><defs><style>.cls-1,.cls-2,.cls-3,.cls-4,.cls-5,.cls-6,.cls-7,.cls-8,.cls-9{fill:none;stroke-miterlimit:11.34;stroke-width:2.83px;}.cls-1{stroke:#000;}.cls-2{stroke:#ff0;}.cls-3{stroke:red;}.cls-4{stroke:gray;}.cls-5{stroke:#f0f;}.cls-6{stroke:blue;}.cls-7{stroke:lime;}.cls-8{stroke:aqua;}.cls-9{stroke:#ff8080;}</style></defs><title>puzzleplatte</title><path class="cls-1" d="M2026.77,3193.71c368.51,122.83,368.51-368.5,0-245.68s-184.25-245.68-184.25-491.33c-368.5,0-921.26,122.83-737-122.85s-552.75-245.65-368.5,0c161.72,215.64-244.37,147.38-595.28,127.46v890.94a119.07,119.07,0,0,0,119.06,119.06h1556C1783.32,3276.21,1757.75,3104,2026.77,3193.71Z" transform="translate(-140.32 -68.32)"/><path class="cls-2" d="M737,2333.85c-184.25-245.65,552.75-245.65,368.5,0s368.51,122.85,737,122.85c0-245.68,184.25-614.18-184.25-491.36s-368.51-368.5,0-245.65,184.25-245.67,184.25-491.35c-368.5,0-921.26-122.83-737,122.85s-552.75,245.65-368.5,0c121.54-162.06-77.62-163.77-333-146.16l-.58.91-6.91,11-6.82,11.08-6.73,11.11-6.64,11.14-6.56,11.17-6.47,11.21-6.37,11.23-6.29,11.26-6.2,11.3-6.11,11.32-6,11.35-5.93,11.37-5.84,11.41-5.74,11.43-5.66,11.46-5.57,11.48-5.47,11.51-5.39,11.54-5.29,11.56-5.2,11.58-5.11,11.61-5,11.63-4.93,11.66-4.83,11.68-4.74,11.7-4.64,11.72-4.56,11.75L243.89,1526l-4.36,11.79-4.27,11.81-4.18,11.82L227,1573.28l-4,11.86L219.1,1597l-3.8,11.91-3.71,11.91L208,1632.78l-3.52,12-3.42,12-3.33,12-3.23,12-3.14,12-3,12-3,12-2.85,12-2.76,12.07L177.08,1753l-2.56,12.09-2.47,12.11-2.38,12.11-2.27,12.13-2.18,12.14-2.09,12.15-2,12.16L159.26,1850l-1.8,12.18-1.7,12.18-1.6,12.2-1.5,12.19L151.25,1911l-1.31,12.21-1.21,12.22-1.12,12.22-1,12.23-.92,12.24-.83,12.23-.73,12.24-.63,12.25-.53,12.24-.44,12.25-.34,12.25-.24,12.25-.15,12.26-.05,12.25v379C492.64,2481.23,898.73,2549.49,737,2333.85Z" transform="translate(-140.32 -68.32)"/><path class="cls-3" d="M737,1351.19c-184.25,245.65,552.75,245.65,368.5,0s368.51-122.85,737-122.85c0-245.65-184.25-614.16,184.25-491.33s368.51-368.51,0-245.68c-273,91-242.64-87.59-208.56-286.16l-6,1.77-14.86,4.49L1782.53,216l-14.79,4.62L1753,225.29,1738.28,230l-14.67,4.83-14.63,4.9-14.6,5-14.55,5-14.52,5.1L1650.83,260l-14.43,5.23-14.39,5.3-14.35,5.37-14.31,5.44-14.26,5.5-14.22,5.57-14.18,5.64-14.13,5.7-14.08,5.77-14,5.83-14,5.9-14,6-13.89,6-13.85,6.09-13.8,6.16-13.76,6.22L1411.5,358l-13.65,6.35-13.6,6.42-13.55,6.47-13.5,6.55-13.45,6.6-13.39,6.67L1317,403.83l-13.29,6.79-13.23,6.85-13.18,6.92-13.12,7-13.07,7-13,7.1-13,7.16-12.89,7.22-12.85,7.28-12.78,7.34-12.72,7.4-12.67,7.46-12.6,7.51-12.55,7.58-12.48,7.64-12.43,7.69-12.36,7.75-12.3,7.81-12.24,7.87-12.18,7.92-12.11,8-12,8-12,8.09L1014,583.4l-11.86,8.21-11.79,8.26-11.73,8.31L967,616.55,955.41,625l-11.53,8.47L932.43,642,921,650.57l-11.32,8.64-11.25,8.69-11.19,8.74-11.11,8.8-11,8.85-11,8.89-10.91,9-10.83,9-10.76,9L811,739.29l-10.61,9.15-10.55,9.2-10.47,9.25-10.4,9.29-10.32,9.35-10.25,9.4-10.17,9.44-10.1,9.49-10,9.53L708.11,833l-9.88,9.63-9.79,9.67L678.72,862l-9.64,9.77-9.56,9.81L650,891.44l-9.41,9.9-9.32,9.94-9.25,10-9.17,10-9.09,10.07-9,10.12-8.93,10.16L577,971.84l-8.77,10.24-8.69,10.28-8.6,10.33-8.52,10.36-8.44,10.4-8.36,10.44-8.28,10.48-8.19,10.51L501,1065.44,493,1076l-7.94,10.63-7.86,10.67-7.77,10.7-7.68,10.74-7.6,10.78-7.52,10.81-7.42,10.85-7.35,10.88L424.63,1173l-7.17,11-7.09,11L404,1205C659.39,1187.42,858.55,1189.13,737,1351.19Z" transform="translate(-140.32 -68.32)"/><path class="cls-4" d="M3869.29,3193.71c368.51,122.83,368.51-368.5,0-245.68S3685,2702.35,3685,2456.7c-368.5,0-921.26-122.85-737,122.83s-552.75,245.68-368.5,0-368.51-122.83-737-122.83c0,245.65-184.25,614.16,184.25,491.33s368.51,368.51,0,245.68c-269-89.69-243.45,82.5-210,277.6H3659.26C3625.84,3276.21,3600.27,3104,3869.29,3193.71Z" transform="translate(-140.32 -68.32)"/><path class="cls-5" d="M1658.27,1719.69c-368.51-122.85-368.51,368.51,0,245.65S1842.52,2211,1842.52,2456.7c368.5,0,921.26-122.85,737,122.83s552.75,245.68,368.5,0,368.51-122.83,737-122.83c0-245.68-184.25-614.18,184.25-491.36s368.51-368.5,0-245.65S3685,1474,3685,1228.34c-368.5,0-921.26-122.83-737,122.85s-552.75,245.65-368.5,0-368.51-122.85-737-122.85C1842.52,1474,2026.77,1842.52,1658.27,1719.69Z" transform="translate(-140.32 -68.32)"/><path class="cls-6" d="M3500.79,491.33c-368.51-122.83-368.51,368.5,0,245.68S3685,982.69,3685,1228.34c368.5,0,921.26-122.83,737,122.85s552.75,245.65,368.5,0C4669,1189.13,4868.17,1187.42,5123.6,1205l-6.42-10.1-7.08-11-7.17-11-7.25-10.91-7.35-10.88-7.42-10.85-7.52-10.81-7.6-10.78L5058.1,1108l-7.77-10.7-7.85-10.67-7.94-10.63-8-10.59-8.1-10.56-8.19-10.51-8.28-10.48-8.36-10.44-8.44-10.4-8.52-10.36-8.6-10.33-8.69-10.28-8.77-10.24-8.85-10.19-8.93-10.16-9-10.12-9.09-10.07-9.17-10-9.25-10-9.32-9.94-9.41-9.9-9.49-9.86-9.56-9.81-9.64-9.77-9.72-9.72-9.79-9.67-9.88-9.63-9.94-9.59-10-9.53-10.1-9.49-10.17-9.44-10.25-9.4-10.32-9.35-10.4-9.29-10.47-9.25-10.55-9.2-10.61-9.15-10.69-9.11-10.76-9-10.84-9-10.9-9-11-8.89-11.05-8.85-11.11-8.8-11.19-8.74-11.25-8.69-11.33-8.64L4595.13,642l-11.46-8.54L4572.15,625l-11.59-8.43-11.66-8.37-11.73-8.31-11.79-8.26-11.86-8.21-11.92-8.15-12-8.09-12-8-12.11-8-12.18-7.92L4441,535.35l-12.3-7.81-12.36-7.75-12.43-7.69-12.48-7.64-12.55-7.58-12.6-7.51-12.67-7.46-12.72-7.4-12.79-7.34-12.84-7.28-12.89-7.22-13-7.16-13-7.1-13.07-7-13.12-7-13.18-6.92-13.23-6.85-13.29-6.79-13.34-6.73-13.39-6.67-13.45-6.6-13.5-6.55-13.55-6.47-13.6-6.42L4116.06,358l-13.7-6.29-13.76-6.22-13.8-6.16L4061,333.28l-13.89-6-13.95-6-14-5.9-14-5.83L3991,303.78l-14.13-5.7-14.18-5.64-14.22-5.57-14.26-5.5-14.31-5.44-14.35-5.37-14.39-5.3L3876.73,260l-14.48-5.17-14.52-5.1-14.55-5-14.6-5-14.63-4.9L3789.27,230l-14.71-4.75-14.75-4.69L3745,216l-14.82-4.55-14.86-4.49-6-1.77C3743.43,403.74,3773.74,582.33,3500.79,491.33Z" transform="translate(-140.32 -68.32)"/><path class="cls-7" d="M3685.53,198.19l-15-4.27-15-4.21-15-4.13-15.06-4.06-15.09-4-15.13-3.92-15.15-3.85L3564.92,166l-15.21-3.71-15.25-3.64-15.27-3.56-15.3-3.5-15.33-3.42-15.36-3.35-15.38-3.28-15.4-3.21L3427,135.17l-15.45-3.06-15.49-3-15.5-2.92L3365,123.36l-15.55-2.78-15.57-2.7-15.59-2.63-15.61-2.55-15.64-2.48-15.65-2.41-15.67-2.34L3240,103.21,3224.33,101l-15.72-2.11-15.74-2-15.76-2L3161.34,93l-15.79-1.82-15.8-1.75-15.81-1.67-15.83-1.6-15.84-1.53-15.85-1.45-15.86-1.37-15.88-1.31-15.88-1.23-15.89-1.15L2987,77l-15.91-1-15.91-.93-15.93-.86-15.93-.78-15.94-.71-15.94-.63-16-.56-15.95-.49-15.95-.41-16-.33-16-.26-16-.19-16-.11-16,0-16,0-16,.11-16,.19-16,.26-16,.33-15.95.41-15.95.49-16,.56-15.94.63-15.94.71-15.93.78-15.93.86-15.92.93-15.91,1-15.9,1.08-15.89,1.15-15.88,1.23L2477,81.81l-15.86,1.37-15.85,1.45-15.84,1.53-15.83,1.6-15.81,1.67L2382,91.18,2366.22,93l-15.77,1.9-15.76,2-15.74,2L2303.23,101l-15.71,2.19-15.69,2.26-15.67,2.34-15.65,2.41-15.64,2.48-15.61,2.55-15.59,2.63-15.57,2.7-15.55,2.78L2147,126.2l-15.51,2.92-15.48,3-15.45,3.06-15.44,3.14-15.4,3.21-15.39,3.28L2039,148.15l-15.33,3.42-15.3,3.5-15.27,3.56-15.25,3.64L1962.64,166l-15.19,3.78-15.15,3.85-15.13,3.92-15.09,4L1887,185.58l-15,4.13-15,4.21-15,4.27-14.93,4.34-8.89,2.64c-34.08,198.57-64.39,377.16,208.56,286.16,368.51-122.83,368.51,368.5,0,245.68s-184.25,245.68-184.25,491.33c368.5,0,921.26-122.83,737,122.85s552.75,245.65,368.5,0,368.51-122.85,737-122.85c0-245.65,184.25-614.16-184.25-491.33s-368.51-368.51,0-245.68c272.95,91,242.64-87.59,208.56-286.16l-8.89-2.64Z" transform="translate(-140.32 -68.32)"/><path class="cls-8" d="M4790.55,1351.19c184.25,245.65-552.75,245.65-368.5,0s-368.51-122.85-737-122.85c0,245.68-184.25,614.18,184.25,491.35s368.51,368.51,0,245.65S3685,2211,3685,2456.7c368.5,0,921.26-122.85,737,122.83s552.75,245.68,368.5,0c-161.73-215.65,244.37-147.36,595.28-127.44V2082.33l-.05-12.25-.15-12.26-.24-12.25-.34-12.25-.44-12.25-.53-12.24-.63-12.25-.73-12.24-.83-12.23-.92-12.24-1-12.23-1.12-12.22-1.21-12.22-1.31-12.21-1.41-12.21-1.5-12.19-1.61-12.2-1.69-12.18-1.8-12.18-1.89-12.16-2-12.16-2.08-12.15-2.18-12.14-2.28-12.13-2.37-12.11-2.47-12.11-2.56-12.09-2.66-12.09-2.76-12.07-2.85-12-2.95-12-3-12-3.14-12-3.23-12-3.33-12-3.42-12-3.52-12-3.62-11.94-3.7-11.91-3.8-11.91-3.9-11.88-4-11.86-4.09-11.85-4.18-11.82L5288,1537.8l-4.36-11.79-4.46-11.76-4.56-11.75-4.64-11.72-4.74-11.7-4.83-11.68-4.93-11.66-5-11.63-5.11-11.61-5.2-11.58-5.29-11.56-5.39-11.54-5.47-11.51-5.57-11.48-5.66-11.46-5.74-11.43-5.84-11.41-5.93-11.37-6-11.35-6.11-11.32-6.2-11.3-6.29-11.26-6.38-11.23-6.46-11.21-6.56-11.17-6.64-11.14-6.73-11.11-6.82-11.08-6.91-11-.58-.91C4868.17,1187.42,4669,1189.13,4790.55,1351.19Z" transform="translate(-140.32 -68.32)"/><path class="cls-9" d="M4790.55,2579.53c184.25,245.68-552.75,245.68-368.5,0s-368.51-122.83-737-122.83c0,245.65-184.25,614.16,184.25,491.33s368.51,368.51,0,245.68c-269-89.69-243.45,82.5-210,277.6H5266.77a119.07,119.07,0,0,0,119.06-119.06V2452.09C5034.92,2432.17,4628.82,2363.88,4790.55,2579.53Z" transform="translate(-140.32 -68.32)"/><circle class="cls-8" cx="4732.44" cy="2099.05" r="170.08"/></svg>