<svg xmlns="http://www.w3.org/2000/svg" version="1.0" width="1950mm" height="1300mm" viewBox="0 0 1950 1300"><path fill="none" stroke="black" stroke-width="1" d="M0,433.33 C130,433.33 325,390 260,476.67 C195,563.33 455,563.33 390,476.67 C325,390 520,433.33 650,433.33 C780,433.33 975,390 910,476.67 C845,563.33 1105,563.33 1040,476.67 C975,390 1170,433.33 1300,433.33 C1430,433.33 1625,390 1560,476.67 C1495,563.33 1755,563.33 1690,476.67 C1625,390 1820,433.33 1950,433.33 M0,866.67 C130,866.67 325,823.33 260,910 C195,996.67 455,996.67 390,910 C325,823.33 520,866.67 650,866.67 C780,866.67 975,823.33 910,910 C845,996.67 1105,996.67 1040,910 C975,823.33 1170,866.67 1300,866.67 C1430,866.67 1625,910 1560,823.33 C1495,736.67 1755,736.67 1690,823.33 C1625,910 1820,866.67 1950,866.67 M650,0 C650,86.67 585,216.67 715,173.33 C845,130 845,303.33 715,260 C585,216.67 650,346.67 650,433.33 C650,520 715,650 585,606.67 C455,563.33 455,736.67 585,693.33 C715,650 650,780 650,866.67 C650,953.33 715,1083.33 585,1040 C455,996.67 455,1170 585,1126.67 C715,1083.33 650,1213.33 650,1300 M1300,0 C1300,86.67 1365,216.67 1235,173.33 C1105,130 1105,303.33 1235,260 C1365,216.67 1300,346.67 1300,433.33 C1300,520 1235,650 1365,606.67 C1495,563.33 1495,736.67 1365,693.33 C1235,650 1300,780 1300,866.67 C1300,953.33 1365,1083.33 1235,1040 C1105,996.67 1105,1170 1235,1126.67 C1365,1083.33 1300,1213.33 1300,1300 M0,0 L1950,0 L1950,1300 L0,1300 L0,0 "></path></svg>
