<?xml version="1.0"?>
<svg xmlns="http://www.w3.org/2000/svg" xmlns:lc="http://www.librecad.org" xmlns:xlink="http://www.w3.org/1999/xlink" width="1850mm" height="1200mm" viewBox="0 0 1850 1200">
    <g lc:layername="0" lc:is_locked="false" lc:is_construction="false" fill="none" stroke="black" stroke-width="1">
        <path d="M42,1200 L1808,1200 A42,42 0 0,0 1850,1158 L1850,710 L1849.98285606,705.67729263 L1849.93142486,701.35474549 L1849.84570832,697.03251882 L1849.72570961,692.71077282 L1849.57143318,688.3896677 L1849.38288474,684.06936363 L1849.1600713,679.75002076 L1848.9030011,675.43179919 L1848.61168367,671.114859 L1848.28612982,666.7993602 L1847.92635162,662.48546276 L1847.53236239,658.17332659 L1847.10417674,653.86311153 L1846.64181055,649.55497735 L1846.14528095,645.24908375 L1845.61460635,640.94559033 L1845.04980642,636.64465663 L1844.4509021,632.34644205 L1843.81791558,628.05110594 L1843.15087033,623.75880751 L1842.44979108,619.46970586 L1841.71470381,615.18395999 L1840.94563577,610.90172876 L1840.14261547,606.62317091 L1839.30567268,602.34844502 L1838.43483841,598.07770956 L1837.53014496,593.81112284 L1836.59162585,589.548843 L1835.61931587,585.29102805 L1834.61325107,581.0378358 L1833.57346873,576.78942393 L1832.50000741,572.5459499 L1831.39290689,568.30757102 L1830.25220821,564.07444438 L1829.07795365,559.84672692 L1827.87018674,555.62457534 L1826.62895225,551.40814614 L1825.35429619,547.19759562 L1824.04626581,542.99307986 L1822.7049096,538.79475471 L1821.33027727,534.6027758 L1819.92241978,530.4172985 L1818.48138932,526.23847798 L1817.0072393,522.06646912 L1815.50002437,517.90142658 L1813.9598004,513.74350476 L1812.38662447,509.59285776 L1810.78055492,505.44963945 L1809.14165125,501.31400341 L1807.46997424,497.18610295 L1805.76558585,493.06609106 L1804.02854924,488.95412048 L1802.25892882,484.85034362 L1800.45679017,480.75491261 L1798.6222001,476.66797925 L1796.75522662,472.58969505 L1794.85593893,468.52021116 L1792.92440742,464.45967844 L1790.96070371,460.40824741 L1788.96490058,456.36606824 L1786.93707201,452.33329077 L1784.87729316,448.31006449 L1782.78564039,444.29653853 L1780.66219124,440.29286166 L1778.50702442,436.29918228 L1776.3202198,432.31564845 L1774.10185846,428.34240782 L1771.85202262,424.37960767 L1769.57079569,420.42739489 L1767.25826221,416.48591598 L1764.91450792,412.55531705 L1762.53961968,408.6357438 L1760.13368554,404.72734151 L1757.69679467,400.83025507 L1755.22903741,396.94462892 L1752.73050523,393.07060711 L1750.20129075,389.20833323 L1747.64148772,385.35795045 L1745.05119102,381.5196015 L1742.43049668,377.69342866 L1739.77950183,373.87957376 L1737.09830474,370.07817816 L1734.38700481,366.28938277 L1731.64570253,362.51332805 L1728.87449952,358.75015396 L1726.0734985,355 L1723.2428033,351.26300517 L1720.38251884,347.539308 L1717.49275116,343.82904652 L1714.57360736,340.13235825 L1711.62519566,336.44938024 L1708.64762535,332.780249 L1705.64100679,329.12510053 L1702.60545145,325.48407033 L1699.54107184,321.85729336 L1696.44798155,318.24490405 L1693.32629523,314.64703632 L1690.17612861,311.06382353 L1686.99759845,307.4953985 L1683.79082257,303.94189351 L1680.55591984,300.40344027 L1677.29301018,296.88016995 L1674.00221453,293.37221316 L1670.68365487,289.87969991 L1667.33745423,286.40275968 L1663.96373662,282.94152135 L1660.56262712,279.49611321 L1657.1342518,276.06666299 L1653.67873773,272.6532978 L1650.19621301,269.25614418 L1646.68680672,265.87532804 L1643.15064895,262.51097471 L1639.58787079,259.16320889 L1635.99860429,255.83215469 L1632.38298251,252.51793558 L1628.74113946,249.22067441 L1625.07321015,245.94049339 L1621.37933053,242.67751413 L1617.65963754,239.43185757 L1613.91426904,236.20364403 L1610.14336388,232.99299317 L1606.34706183,229.80002399 L1602.52550362,226.62485486 L1598.6788309,223.46760347 L1594.80718627,220.32838686 L1590.91071323,217.20732139 L1586.98955622,214.10452276 L1583.04386059,211.02010597 L1579.0737726,207.95418536 L1575.07943941,204.90687458 L1571.06100909,201.87828658 L1567.01863058,198.86853363 L1562.95245373,195.8777273 L1558.86262928,192.90597844 L1554.74930881,189.95339722 L1550.6126448,187.02009308 L1546.45279059,184.10617475 L1542.26990038,181.21175025 L1538.06412921,178.33692687 L1533.835633,175.48181116 L1529.58456847,172.64650896 L1525.3110932,169.83112538 L1521.01536562,167.03576477 L1516.69754494,164.26053076 L1512.35779123,161.5055262 L1507.99626534,158.77085324 L1503.61312896,156.05661322 L1499.20854456,153.36290678 L1494.7826754,150.68983374 L1490.33568554,148.03749322 L1485.86773983,145.4059835 L1481.37900388,142.79540216 L1476.86964408,140.20584594 L1472.33982758,137.63741085 L1467.7897223,135.09019209 L1463.21949689,132.56428408 L1458.62932077,130.05978044 L1454.01936409,127.57677403 L1449.38979772,125.11535687 L1444.74079328,122.6756202 L1440.0725231,120.25765447 L1435.38516021,117.8615493 L1430.67887838,115.48739351 L1425.95385204,113.1352751 L1421.21025635,110.80528127 L1416.44826715,108.49749838 L1411.66806095,106.21201198 L1406.86981495,103.94890678 L1402.053707,101.70826668 L1397.21991564,99.49017473 L1392.36862002,97.29471314 L1387.5,95.12196331 L1382.61423603,92.97200577 L1377.71150923,90.84492022 L1372.79200131,88.74078549 L1367.85589465,86.6596796 L1362.90337222,84.60167968 L1357.93461759,82.56686201 L1352.94981494,80.55530203 L1347.94914906,78.56707429 L1342.9328053,76.60225251 L1337.90096961,74.6609095 L1332.85382852,72.74311723 L1327.79156911,70.84894679 L1322.71437902,68.9784684 L1317.62244646,67.13175138 L1312.51596018,65.30886419 L1307.39510946,63.50987441 L1302.26008413,61.73484872 L1297.11107452,59.98385291 L1291.9482715,58.25695188 L1286.77186645,56.55420967 L1281.58205125,54.87568937 L1276.37901827,53.22145321 L1271.16296037,51.59156251 L1265.93407091,49.98607768 L1260.69254371,48.40505824 L1255.43857307,46.8485628 L1250.17235373,45.31664904 L1244.8940809,43.80937376 L1239.60395025,42.32679282 L1234.30215786,40.86896119 L1228.98890027,39.43593289 L1223.66437441,38.02776106 L1218.32877767,36.64449788 L1212.98230783,35.28619464 L1207.62516305,33.95290168 L1202.25754194,32.64466842 L1196.87964344,31.36154336 L1191.49166691,30.10357406 L1186.09381208,28.87080716 L1180.68627902,27.66328834 L1175.26926818,26.48106237 L1169.84298037,25.32417308 L1164.40761672,24.19266334 L1158.96337871,23.08657509 L1153.51046815,22.00594934 L1148.04908717,20.95082615 L1142.57943821,19.92124462 L1137.10172401,18.91724292 L1131.61614764,17.93885827 L1126.12291241,16.98612694 L1120.62222197,16.05908423 L1115.1142802,15.15776451 L1109.59929128,14.2822012 L1104.07745964,13.43242675 L1098.54898995,12.60847265 L1093.01408716,11.81036945 L1087.47295641,11.03814674 L1081.92580313,10.29183314 L1076.37283292,9.5714563 L1070.81425162,8.87704295 L1065.25026529,8.20861881 L1059.68108016,7.56620867 L1054.10690267,6.94983633 L1048.52793944,6.35952464 L1042.94439729,5.7952955 L1037.35648318,5.2571698 L1031.76440423,4.7451675 L1026.16836775,4.25930758 L1020.56858116,3.79960804 L1014.96525203,3.36608594 L1009.35858807,2.95875732 L1003.74879711,2.57763731 L998.13608709,2.22274001 L992.52066606,1.8940786 L986.90274218,1.59166524 L981.28252368,1.31551116 L975.66021891,1.06562659 L970.03603627,0.84202078 L964.41018423,0.64470203 L958.78287133,0.47367766 L953.15430617,0.328954 L947.52469738,0.21053641 L941.89425366,0.11842929 L936.26318369,0.05263605 L930.63169622,0.01315914 L925,0 L919.36830378,0.01315914 L913.73681631,0.05263605 L908.10574634,0.11842929 L902.47530262,0.21053641 L896.84569383,0.328954 L891.21712867,0.47367766 L885.58981577,0.64470203 L879.96396373,0.84202078 L874.33978109,1.06562659 L868.71747632,1.31551116 L863.09725782,1.59166524 L857.47933394,1.8940786 L851.86391291,2.22274001 L846.25120289,2.57763731 L840.64141193,2.95875732 L835.03474797,3.36608594 L829.43141884,3.79960804 L823.83163225,4.25930758 L818.23559577,4.7451675 L812.64351682,5.2571698 L807.05560271,5.7952955 L801.47206055,6.35952464 L795.89309733,6.94983633 L790.31891984,7.56620867 L784.74973471,8.20861881 L779.18574838,8.87704295 L773.62716708,9.5714563 L768.07419687,10.29183314 L762.52704359,11.03814674 L756.98591284,11.81036945 L751.45101005,12.60847265 L745.92254036,13.43242675 L740.40070872,14.2822012 L734.8857198,15.15776451 L729.37777803,16.05908423 L723.87708759,16.98612694 L718.38385236,17.93885827 L712.89827599,18.91724292 L707.42056179,19.92124462 L701.95091283,20.95082615 L696.48953185,22.00594934 L691.03662129,23.08657509 L685.59238328,24.19266334 L680.15701963,25.32417308 L674.73073182,26.48106237 L669.31372098,27.66328834 L663.90618792,28.87080716 L658.50833309,30.10357406 L653.12035656,31.36154336 L647.74245806,32.64466842 L642.37483695,33.95290168 L637.01769217,35.28619464 L631.67122233,36.64449788 L626.33562559,38.02776106 L621.01109973,39.43593289 L615.69784214,40.86896119 L610.39604975,42.32679282 L605.1059191,43.80937376 L599.82764627,45.31664904 L594.56142693,46.8485628 L589.30745629,48.40505824 L584.06592909,49.98607768 L578.83703963,51.59156251 L573.62098173,53.22145321 L568.41794875,54.87568937 L563.22813355,56.55420967 L558.0517285,58.25695188 L552.88892548,59.98385291 L547.73991587,61.73484872 L542.60489054,63.50987441 L537.48403982,65.30886419 L532.37755354,67.13175138 L527.28562098,68.9784684 L522.20843089,70.84894679 L517.14617148,72.74311723 L512.09903039,74.6609095 L507.0671947,76.60225251 L502.05085094,78.56707429 L497.05018506,80.55530203 L492.06538241,82.56686201 L487.09662778,84.60167968 L482.14410535,86.6596796 L477.20799869,88.74078549 L472.28849078,90.84492022 L467.38576397,92.97200577 L462.5,95.12196331 L457.63137998,97.29471314 L452.78008436,99.49017473 L447.946293,101.70826668 L443.13018505,103.94890678 L438.33193905,106.21201198 L433.55173285,108.49749838 L428.78974364,110.80528127 L424.04614796,113.1352751 L419.32112162,115.48739351 L414.61483979,117.8615493 L409.9274769,120.25765447 L405.25920672,122.6756202 L400.61020228,125.11535687 L395.98063591,127.57677403 L391.37067923,130.05978044 L386.78050311,132.56428408 L382.2102777,135.09019209 L377.66017242,137.63741085 L373.13035592,140.20584594 L368.62099612,142.79540216 L364.13226017,145.4059835 L359.66431446,148.03749322 L355.2173246,150.68983374 L350.79145544,153.36290678 L346.38687104,156.05661322 L342.00373466,158.77085324 L337.64220877,161.5055262 L333.30245506,164.26053076 L328.98463438,167.03576477 L324.6889068,169.83112538 L320.41543153,172.64650896 L316.164367,175.48181116 L311.93587079,178.33692687 L307.73009962,181.21175025 L303.54720941,184.10617475 L299.3873552,187.02009308 L295.25069119,189.95339722 L291.13737072,192.90597844 L287.04754627,195.8777273 L282.98136942,198.86853363 L278.93899091,201.87828658 L274.92056059,204.90687458 L270.9262274,207.95418536 L266.95613941,211.02010597 L263.01044378,214.10452276 L259.08928677,217.20732139 L255.19281373,220.32838686 L251.3211691,223.46760347 L247.47449638,226.62485486 L243.65293817,229.80002399 L239.85663612,232.99299317 L236.08573096,236.20364403 L232.34036246,239.43185757 L228.62066947,242.67751413 L224.92678985,245.94049339 L221.25886054,249.22067441 L217.61701749,252.51793558 L214.00139571,255.83215469 L210.41212921,259.16320889 L206.84935105,262.51097471 L203.31319328,265.87532804 L199.80378699,269.25614418 L196.32126227,272.6532978 L192.8657482,276.06666299 L189.43737288,279.49611321 L186.03626338,282.94152135 L182.66254577,286.40275968 L179.31634513,289.87969991 L175.99778547,293.37221316 L172.70698982,296.88016995 L169.44408016,300.40344027 L166.20917743,303.94189351 L163.00240155,307.4953985 L159.82387139,311.06382353 L156.67370477,314.64703632 L153.55201845,318.24490405 L150.45892816,321.85729336 L147.39454855,325.48407033 L144.35899321,329.12510053 L141.35237465,332.780249 L138.37480434,336.44938024 L135.42639264,340.13235825 L132.50724884,343.82904652 L129.61748116,347.539308 L126.7571967,351.26300517 L123.9265015,355 L121.12550048,358.75015396 L118.35429747,362.51332805 L115.61299519,366.28938277 L112.90169526,370.07817816 L110.22049817,373.87957376 L107.56950333,377.69342866 L104.94880898,381.5196015 L102.35851228,385.35795045 L99.79870925,389.20833323 L97.26949477,393.07060711 L94.77096259,396.94462892 L92.30320533,400.83025507 L89.86631446,404.72734151 L87.46038032,408.6357438 L85.08549208,412.55531705 L82.74173779,416.48591598 L80.42920431,420.42739489 L78.14797738,424.37960767 L75.89814154,428.34240782 L73.6797802,432.31564845 L71.49297558,436.29918228 L69.33780876,440.29286166 L67.21435961,444.29653853 L65.12270684,448.31006449 L63.06292799,452.33329077 L61.03509942,456.36606824 L59.03929629,460.40824741 L57.07559258,464.45967844 L55.14406107,468.52021116 L53.24477338,472.58969505 L51.3777999,476.66797925 L49.54320983,480.75491261 L47.74107118,484.85034362 L45.97145076,488.95412048 L44.23441415,493.06609106 L42.53002576,497.18610295 L40.85834875,501.31400341 L39.21944508,505.44963945 L37.61337553,509.59285776 L36.0401996,513.74350476 L34.49997563,517.90142658 L32.9927607,522.06646912 L31.51861068,526.23847798 L30.07758022,530.4172985 L28.66972273,534.6027758 L27.2950904,538.79475471 L25.95373419,542.99307986 L24.64570381,547.19759562 L23.37104775,551.40814614 L22.12981326,555.62457534 L20.92204635,559.84672692 L19.74779179,564.07444438 L18.60709311,568.30757102 L17.49999259,572.5459499 L16.42653127,576.78942393 L15.38674893,581.0378358 L14.38068413,585.29102805 L13.40837415,589.548843 L12.46985504,593.81112284 L11.56516159,598.07770956 L10.69432732,602.34844502 L9.85738453,606.62317091 L9.05436423,610.90172876 L8.28529619,615.18395999 L7.55020892,619.46970586 L6.84912967,623.75880751 L6.18208442,628.05110594 L5.5490979,632.34644205 L4.95019358,636.64465663 L4.38539365,640.94559033 L3.85471905,645.24908375 L3.35818945,649.55497735 L2.89582326,653.86311153 L2.46763761,658.17332659 L2.07364838,662.48546276 L1.71387018,666.7993602 L1.38831633,671.114859 L1.0969989,675.43179919 L0.8399287,679.75002076 L0.61711526,684.06936363 L0.42856682,688.3896677 L0.27429039,692.71077282 L0.15429168,697.03251882 L0.06857514,701.35474549 L0.01714394,705.67729263 L0,710 L0,1158 A42,42 0 0,0 42,1200 Z "/>
        <circle cx="1669" cy="740" r="60"/>
    </g>
</svg>
